<svg version="1.2" xmlns="http://www.w3.org/2000/svg" viewBox="0 0 682 380">
	<title>M Logo</title>
	<g>
		<g>
			<path fill="#6e07f3" d="m530.9 115.4l-110.8 221.6c-12.9 25.7-38.7 41.7-67.5 41.7-26.3 0-50.3-13.4-64.1-35.8-13.9-22.4-15.1-49.8-3.3-73.4l21.2-42.4-53.5-107-108.4 216.9c-12.9 25.7-38.7 41.7-67.5 41.7-26.3 0-50.3-13.4-64.1-35.8-13.9-22.4-15.1-49.8-3.3-73.4l116.2-232.5c11.1-22.2 33.4-36 58.2-36 24.8 0 47.1 13.8 58.2 36l26.1 52.3 53.5 107 79.6-159.3c11.1-22.2 33.4-36 58.2-36 24.8 0 47.1 13.8 58.2 36l13.1 26.1c8.2 16.4 8.2 35.9 0 52.3zm-293.4-26.1l-20-40c-6.5-13-19-20.7-33.5-20.7-14.5 0-27 7.7-33.5 20.7l-116.3 232.5c-7.5 15-6.7 32.4 2.1 46.6 8.8 14.2 24 22.7 40.7 22.7 18.2 0 34.6-10.1 42.8-26.4zm268.7-13.9l-13-26.1c-6.5-13-19.1-20.7-33.6-20.7-14.5 0-27 7.7-33.5 20.7l-116.3 232.5c-7.4 15-6.7 32.4 2.1 46.6 8.8 14.2 24 22.7 40.7 22.7 18.3 0 34.7-10.1 42.8-26.5l110.8-221.5c4.3-8.7 4.3-19 0-27.7z"/>
			<path fill="#6e07f3" d="m680.1 300.6c0 43-35 78.1-78 78.1-43.1 0-78.1-35.1-78.1-78.1 0-43 35-78 78.1-78 43 0 78 35 78 78zm-27.5 0c0-27.8-22.7-50.5-50.5-50.5-27.9 0-50.5 22.7-50.5 50.5 0 27.9 22.6 50.5 50.5 50.5 27.8 0 50.5-22.6 50.5-50.5z"/>
		</g>
		<path fill="#6e07f3" d="m82 365c-8 0-15.6-1.8-22.6-5.1-6.9-3.4-13.1-8.1-18.4-14-5.2-5.9-9.5-12.9-12.4-20.6-3-7.8-4.6-16.3-4.6-25.3 0-9 1.6-17.6 4.7-25.9 3.3-9.1 8.5-19.9 15.8-33.5 8.6-18.2 20.1-42.1 34.2-70.9 15.7-33.7 33.4-68.9 51.8-99.4 18.5-28 35.1-43.4 49.5-47.3 14.8-1.3 28.2 4.6 39.5 14.3 11.7 7.9 19.8 18.9 22.2 34.7 0.5 17.3-6.3 43.3-20.6 78.5-15.4 37.2-33.7 76.1-51.7 111.3-15.3 30.8-28.8 55.1-39.9 72.1-9 12.9-17 21-24.6 25.5-7.2 3.7-14.9 5.6-22.9 5.6zm270 2c-8 0-15.6-1.8-22.6-5.1-6.9-3.4-13.1-8.1-18.4-14-5.2-5.9-9.5-12.9-12.4-20.6-3-7.8-4.6-16.3-4.6-25.3 0-9 1.6-17.6 4.7-25.9 3.3-9.1 8.5-19.9 15.8-33.5 8.6-18.2 20.1-42.1 34.2-70.9 15.7-33.7 33.4-68.9 51.8-99.4 18.5-28 35.1-43.4 49.5-47.3 14.8-1.3 28.2 4.6 39.5 14.3 11.7 7.9 19.8 18.9 22.2 34.7 0.5 17.3-6.3 43.3-20.6 78.5-15.4 37.2-33.7 76.1-51.7 111.3-15.3 30.8-28.8 55.1-39.9 72.1-9 12.9-17 21-24.6 25.5-7.2 3.7-14.9 5.6-22.9 5.6zm249.5-10c-30.7 0-55.5-25.3-55.5-56.5 0-31.2 24.8-56.5 55.5-56.5 30.7 0 55.5 25.3 55.5 56.5 0 31.2-24.8 56.5-55.5 56.5z"/>
	</g>
</svg>