<svg version="1.2" viewBox="0 0 682 380" xmlns="http://www.w3.org/2000/svg">
    <title>&quot;M&quot; Logo</title>
    <g>
        <g>
            <path fill="#6e07f3" d="M 530.7 115.4 L 420 336.9 C 407.1 362.7 381.3 378.6 352.5 378.6 C 326.2 378.6 302.2 365.3 288.3 342.9 C 274.5 320.5 273.3 293 285.1 269.5 L 306.3 227 L 252.8 120 L 144.3 336.9 C 131.5 362.7 105.6 378.6 76.9 378.6 C 50.5 378.6 26.6 365.3 12.7 342.9 C -1.1 320.5 -2.3 293 9.4 269.5 L 125.7 37 C 136.8 14.8 159.1 1 183.9 1 C 208.7 1 231 14.8 242.1 37 L 268.2 89.2 L 321.7 196.2 L 401.3 37 C 412.4 14.8 434.7 1 459.5 1 C 484.3 1 506.6 14.8 517.7 37 L 530.7 63.1 C 538.9 79.5 538.9 99 530.7 115.4 Z"/>
            <path fill="#6e07f3" d="M 602 378.6 C 558.8 378.6 523.9 343.7 523.9 300.6 C 523.9 257.4 558.8 222.5 602 222.5 C 645.1 222.5 680 257.4 680 300.6 C 680 343.7 645.1 378.6 602 378.6 Z"/>
        </g>
    </g>
</svg>