<svg version="1.2" xmlns="http://www.w3.org/2000/svg" viewBox="0 0 1270 1270" width="40" height="40">
	<title>Rose Logo</title>
	<defs>
		<linearGradient id="g1" x1="899.2" y1="-638.2" x2="2478.1" y2="2095.2" gradientUnits="userSpaceOnUse">
			<stop offset="0" stop-color="#ff332a"/>
			<stop offset="1" stop-color="#e60059"/>
		</linearGradient>
	</defs>
	<style>
		.s0 { fill: url(#g1) } 
	</style>
	<g id="321353356351 1">
		<path id="&lt;Compound Path&gt;" fill-rule="evenodd" class="s0" d="m1100.9 802.1c-6.2 6.2-12.8 12-19.6 17.5q0 0 0 0c-15.4 12.4-32.2 22.7-49.9 30.8q0 0 0 0v-0.1c-30.4 13.9-63.7 21.2-98 21.2-25.4 0-50.1-4-73.6-11.6 13.6 41.6 15.3 86.3 5.2 128.7h-19.1c-11.3 0-22.4-1.4-33-3.9q0 0 0 0c17.9-62.8 2.3-133.2-47-182.5l-105.5-105.5v149.2c0 47.9 18.3 91.6 48.2 124.6 22.6 24.8 51.9 43.4 84.9 53.2q1.4 0.5 2.7 0.9c15.8 4.4 32.5 6.8 49.7 6.8h55.1l0.1-0.1h130.3v-134.6q0 0 0 0c17.9-6.6 35.1-15.2 51.4-25.5q0 0 0-0.1v211.7h-236.9c-8.8 0-17.6-0.5-26.2-1.5-5.4 6.8-11.2 13.3-17.5 19.6l-167.5 167.5-167.4-167.4c-6.2-6.2-12-12.8-17.5-19.5q0 0 0 0c-12.4-15.5-22.7-32.2-30.7-50q0 0-0.1 0h0.1c-13.9-30.4-21.2-63.6-21.2-98 0-25.4 4-50.1 11.6-73.5-41.6 13.5-86.3 15.2-128.7 5.1v-19.1c0-11.3 1.4-22.4 3.9-33q0 0 0 0c62.8 18 133.2 2.3 182.5-47l105.5-105.5h-149.2c-47.9 0-91.6 18.3-124.6 48.3-24.8 22.5-43.4 51.8-53.2 84.8q-0.5 1.4-0.9 2.7c-4.4 15.8-6.8 32.5-6.8 49.7v55.2h0.1v130.3h134.6q0 0 0 0c6.6 18 15.2 35.1 25.5 51.4q0 0 0.1 0.1h-211.7v-237c0-8.8 0.6-17.6 1.5-26.2-6.8-5.4-13.3-11.2-19.6-17.4l-167.5-167.6 167.5-167.5c6.3-6.2 12.8-12 19.6-17.5q0 0 0 0c15.4-12.4 32.2-22.7 49.9-30.7q0 0 0-0.1v0.1c30.4-13.9 63.7-21.2 98-21.2 25.4 0 50.1 4 73.6 11.6-13.5-41.6-15.3-86.3-5.2-128.7h19.1c11.3 0 22.4 1.4 33 3.9q0 0 0 0c-17.9 62.8-2.3 133.2 47 182.5l105.5 105.5v-149.2c0-47.9-18.3-91.6-48.2-124.6-22.6-24.8-51.9-43.4-84.9-53.2q-1.4-0.5-2.7-0.9c-15.8-4.4-32.5-6.8-49.7-6.8h-55.1l-0.1 0.1h-130.3v134.6q0 0 0 0c-17.9 6.6-35.1 15.2-51.4 25.5q0 0 0 0.1v-211.7h236.9c8.8 0 17.6 0.6 26.2 1.5 5.4-6.8 11.2-13.3 17.5-19.6l167.5-167.5 167.4 167.4c6.2 6.2 12 12.8 17.5 19.5q0 0 0 0c12.4 15.5 22.7 32.3 30.8 50q0 0 0 0h-0.1c13.9 30.4 21.2 63.6 21.2 98 0 25.4-4 50.1-11.6 73.5 41.6-13.5 86.3-15.2 128.7-5.1v19.1c0 11.3-1.4 22.4-3.9 33q0 0 0 0c-62.8-18-133.2-2.3-182.5 47l-105.5 105.5h149.2c47.9 0 91.7-18.3 124.6-48.2 24.8-22.6 43.4-51.9 53.2-84.9q0.6-1.4 0.9-2.7c4.4-15.8 6.8-32.5 6.8-49.7v-55.2h-0.1v-130.3h-134.5q-0.1 0-0.1 0c-6.6-18-15.2-35.1-25.5-51.4q0 0-0.1-0.1h211.7v237c0 8.8-0.5 17.6-1.5 26.2 6.8 5.4 13.3 11.2 19.6 17.5l167.5 167.5zm-784.5-167.3c-22.3-11.4-42.7-26.2-60.3-43.8-23.7-23.7-42.3-52.3-54.4-84.2l-128 128 128.1 128c12.6-33.6 32.8-63.6 58.3-88 16.7-15.9 35.6-29.5 56.3-40zm256.3-25.8l-105.4-105.4c-35.1-35-81.7-54.3-131.2-54.3-32.5 0-63.7 8.3-91.2 23.9 8.6 31.2 25.2 59.2 47.5 81.5 33.6 33.5 80 54.3 131.1 54.3zm62.1-292.6v-0.3c11.4-22.3 26.1-42.7 43.7-60.2 23.6-23.7 52.3-42.3 84.2-54.3l-127.9-127.9-128.1 128c32 12 60.7 30.7 84.3 54.4 17.6 17.6 32.4 37.9 43.8 60.3zm-161.5 708.3c31.2-8.7 59.1-25.3 81.4-47.6 33.6-33.6 54.4-79.9 54.4-131.1v-149.2l-105.4 105.5c-35.1 35-54.3 81.6-54.3 131.2 0 32.5 8.3 63.6 23.9 91.2zm161.5-71.7v0.3c-11.4 22.3-26.2 42.6-43.7 60.1-23.7 23.7-52.4 42.4-84.2 54.4l127.9 127.9 128-128.1c-31.9-12-60.6-30.7-84.3-54.4-17.6-17.5-32.4-37.9-43.7-60.2zm131-485.9c35.1-35.1 54.4-81.6 54.4-131.2 0-32.5-8.4-63.7-24-91.2-31.2 8.7-59.1 25.3-81.4 47.5-33.6 33.6-54.4 80-54.4 131.1v149.2zm258.8 329.1c-8.7-31.3-25.3-59.2-47.6-81.5-33.5-33.6-79.9-54.4-131-54.4h-149.2l105.4 105.5c35 35 81.6 54.3 131.2 54.3 32.5 0 63.7-8.3 91.2-23.9zm171.1-161.6l-128-128.1c-12.7 33.7-32.8 63.7-58.3 88.1-16.7 15.9-35.6 29.4-56.4 40 22.4 11.4 42.8 26.2 60.4 43.8 23.7 23.7 42.3 52.3 54.3 84.2z"/>
	</g>
</svg>